<?xml version="1.0" standalone="no"?>
   <!DOCTYPE svg PUBLIC "-//W3C//DTD SVG 1.1//EN" 
   "http://www.w3.org/Graphics/SVG/1.1/DTD/svg11.dtd"><svg id="svg" version="1.1" width="2910" height="2664" xmlns="http://www.w3.org/2000/svg"><path d="M1841.412 235.700 C 1814.018 262.334,1788.000 319.728,1788.000 353.524 C 1788.000 392.002,1799.136 416.986,1837.021 463.500 C 1845.084 473.400,1856.591 491.625,1862.591 504.000 C 1872.167 523.750,1873.500 529.250,1873.500 549.000 C 1873.500 574.574,1866.793 591.913,1850.425 608.655 C 1842.569 616.690,1821.785 630.000,1817.094 630.000 C 1816.465 630.000,1814.371 624.732,1812.442 618.293 C 1807.811 602.837,1787.059 572.037,1776.718 565.273 C 1761.479 555.304,1736.192 529.571,1732.081 519.846 C 1722.074 496.176,1730.667 453.805,1747.743 442.617 C 1756.094 437.145,1757.345 426.711,1749.988 423.888 C 1743.060 421.230,1711.909 437.907,1693.182 454.300 C 1668.823 475.624,1644.000 522.162,1644.000 546.506 C 1644.000 563.288,1652.465 585.090,1671.275 616.751 C 1700.966 666.728,1704.560 687.193,1686.885 705.641 C 1680.821 711.971,1676.055 714.000,1667.249 714.000 C 1656.870 714.000,1653.064 711.565,1631.840 691.348 C 1598.600 659.684,1583.102 652.984,1543.425 653.126 C 1502.138 653.273,1490.804 659.923,1507.338 674.298 C 1511.373 677.807,1518.461 682.655,1523.088 685.071 C 1531.871 689.659,1549.260 711.007,1558.870 729.000 C 1563.156 737.026,1564.475 745.860,1564.467 766.500 C 1564.454 802.587,1557.707 815.298,1513.518 862.500 C 1493.520 883.862,1476.462 914.241,1462.535 953.296 L 1459.042 963.092 1442.886 933.796 C 1434.000 917.683,1421.567 894.375,1415.258 882.000 L 1403.786 859.500 1405.712 829.320 C 1407.903 795.007,1403.793 773.362,1389.108 741.860 C 1382.670 728.051,1378.464 722.729,1372.879 721.327 C 1361.733 718.530,1359.860 721.075,1358.420 740.985 C 1357.293 756.572,1355.713 760.511,1346.968 769.533 C 1334.880 782.004,1326.925 782.683,1311.611 772.548 C 1292.003 759.572,1289.046 751.157,1288.162 705.817 C 1286.933 642.800,1279.197 622.662,1240.554 581.886 C 1205.742 545.152,1197.481 521.773,1203.493 477.000 C 1204.263 471.266,1203.151 469.500,1198.769 469.500 C 1194.825 469.500,1189.767 475.462,1182.545 488.624 C 1163.861 522.673,1165.573 557.380,1188.557 610.500 C 1202.454 642.617,1202.781 654.728,1190.008 664.202 C 1172.067 677.509,1120.591 667.991,1102.523 648.026 C 1097.309 642.264,1079.897 596.288,1073.541 571.500 C 1069.301 554.961,1072.127 528.136,1080.148 508.782 C 1087.486 491.078,1086.527 483.000,1077.086 483.000 C 1065.651 483.000,1019.933 541.195,1012.274 565.500 C 1009.674 573.750,1006.784 591.638,1005.851 605.250 C 1004.918 618.863,1003.332 629.923,1002.327 629.829 C 1000.515 629.660,987.177 613.229,964.955 583.793 C 937.065 546.849,930.144 516.912,937.591 465.431 C 943.295 425.999,942.142 410.819,931.196 381.290 C 922.609 358.122,886.500 309.531,863.529 290.229 C 851.531 280.148,848.671 278.965,843.279 281.851 C 833.862 286.890,835.504 292.285,852.000 310.500 L 867.000 327.064 866.964 353.282 C 866.920 386.263,862.117 404.304,843.267 442.289 C 816.188 496.861,813.424 522.615,828.148 583.150 C 838.024 623.751,837.673 632.770,825.445 652.651 C 817.683 665.271,791.585 673.162,762.959 671.545 C 745.612 670.564,739.548 668.694,726.433 660.278 C 716.219 653.724,708.515 645.891,704.455 637.931 C 692.065 613.644,694.203 570.378,709.503 535.781 C 734.465 479.337,730.070 414.369,697.226 354.289 C 680.504 323.702,670.125 314.304,662.018 322.410 C 658.154 326.275,658.547 329.096,665.253 345.654 C 672.383 363.258,672.639 365.587,669.140 381.000 C 667.080 390.075,663.566 406.450,661.332 417.390 C 656.176 442.632,645.193 461.179,620.112 486.995 C 596.754 511.038,586.443 530.594,581.946 559.377 C 577.845 585.629,579.768 597.431,593.944 633.000 C 610.014 673.324,613.723 692.965,607.530 704.943 C 600.663 718.220,590.965 721.939,576.045 717.015 C 561.595 712.246,557.165 707.657,548.838 688.833 C 544.451 678.916,543.023 671.320,544.282 664.608 C 545.607 657.543,544.756 653.703,541.214 650.763 C 536.979 647.248,535.484 647.701,530.220 654.097 C 512.554 675.562,502.000 714.774,508.445 735.000 C 512.358 747.282,529.753 772.696,547.345 791.831 C 556.409 801.690,564.690 813.204,565.747 817.417 C 570.490 836.315,559.233 869.875,544.179 881.716 C 534.665 889.201,530.513 889.474,517.822 883.452 C 504.202 876.989,498.034 864.533,491.395 830.088 C 483.147 787.296,473.865 770.551,433.697 726.000 C 407.942 697.435,402.200 686.882,399.421 663.000 C 397.664 647.912,396.858 646.500,390.000 646.500 C 382.597 646.500,382.470 646.926,380.157 679.477 C 377.088 722.684,379.955 734.791,403.249 777.000 C 432.221 829.498,433.400 834.596,430.277 893.868 C 424.864 996.589,426.650 1010.500,454.855 1085.335 C 471.870 1130.478,473.053 1136.950,467.617 1155.095 C 462.507 1172.151,442.488 1178.794,429.483 1167.750 C 421.154 1160.677,402.000 1130.807,402.000 1124.892 C 402.000 1122.282,400.058 1117.526,397.683 1114.323 C 393.631 1108.856,393.052 1108.810,388.226 1113.564 C 383.897 1117.830,383.040 1125.164,382.793 1160.064 C 382.506 1200.603,382.693 1201.857,391.436 1218.000 C 396.631 1227.592,413.098 1247.247,430.768 1264.946 C 447.486 1281.691,465.108 1301.266,469.928 1308.446 C 492.683 1342.342,500.232 1382.546,487.118 1400.004 C 481.147 1407.953,479.410 1408.481,460.118 1408.207 C 444.924 1407.991,435.060 1405.907,422.625 1400.288 C 388.029 1384.654,370.142 1358.852,361.174 1311.647 C 347.665 1240.541,338.588 1212.034,318.510 1177.650 C 302.334 1149.949,240.000 1090.326,240.000 1102.555 C 240.000 1103.409,246.935 1117.922,255.411 1134.805 C 263.886 1151.687,273.998 1173.932,277.880 1184.237 C 285.654 1204.873,299.984 1292.299,300.027 1319.353 C 300.061 1340.666,311.745 1393.085,322.241 1419.013 C 356.424 1503.453,414.097 1559.614,496.179 1588.390 C 509.203 1592.956,527.958 1601.438,537.857 1607.240 C 575.190 1629.120,588.962 1648.404,582.102 1669.190 C 577.657 1682.661,566.459 1687.310,545.399 1684.429 C 522.846 1681.344,516.152 1678.265,502.030 1664.476 C 490.347 1653.069,483.000 1651.396,483.000 1660.144 C 483.000 1667.472,509.945 1702.547,525.494 1715.459 C 547.584 1733.803,566.081 1742.374,591.529 1746.056 C 625.507 1750.973,642.300 1755.220,657.135 1762.650 C 674.001 1771.096,700.709 1794.738,702.915 1803.175 C 705.217 1811.978,696.350 1819.773,677.747 1825.297 C 662.838 1829.725,643.254 1828.845,612.967 1822.388 C 605.426 1820.780,596.517 1828.251,598.820 1834.252 C 600.496 1838.620,635.718 1854.345,655.500 1859.556 C 662.100 1861.295,685.781 1863.470,708.124 1864.389 C 730.468 1865.308,752.743 1867.251,757.624 1868.706 C 782.459 1876.108,814.481 1894.687,835.050 1913.627 C 855.500 1932.458,869.776 1962.142,860.158 1965.832 C 852.662 1968.709,830.975 1962.270,806.363 1949.859 C 781.196 1937.169,769.615 1935.319,760.323 1942.502 C 754.609 1946.920,754.632 1947.116,761.582 1953.002 C 765.478 1956.301,771.094 1959.000,774.063 1959.000 C 779.134 1959.000,803.840 1976.739,817.756 1990.371 C 821.197 1993.742,832.190 2006.625,842.185 2019.000 C 874.540 2059.059,886.866 2067.027,937.505 2080.617 C 954.002 2085.045,974.250 2090.659,982.500 2093.093 C 1012.373 2101.907,1064.532 2136.325,1077.074 2155.500 C 1084.878 2167.432,1084.563 2169.000,1074.366 2169.000 C 1061.252 2169.000,1044.941 2161.029,1037.523 2150.996 C 1028.911 2139.348,1017.000 2138.523,1017.000 2149.575 C 1017.000 2159.125,1035.690 2196.583,1044.710 2205.112 C 1048.445 2208.643,1058.250 2215.045,1066.500 2219.338 C 1079.915 2226.318,1085.946 2227.321,1123.567 2228.822 L 1165.634 2230.500 1186.979 2243.183 C 1208.593 2256.026,1236.000 2282.867,1236.000 2291.191 C 1236.000 2295.047,1232.028 2295.447,1209.750 2293.835 C 1195.313 2292.791,1178.775 2291.613,1173.000 2291.218 C 1155.708 2290.035,1158.949 2300.121,1180.500 2314.559 C 1206.333 2331.866,1224.790 2337.000,1261.179 2337.000 C 1289.703 2337.000,1293.018 2337.654,1312.585 2347.150 C 1324.088 2352.732,1343.503 2364.545,1355.729 2373.400 C 1400.057 2405.506,1405.963 2409.421,1434.449 2425.579 C 1450.371 2434.611,1466.245 2442.000,1469.725 2442.000 C 1473.205 2442.000,1481.600 2437.981,1488.380 2433.069 C 1495.161 2428.158,1505.486 2423.243,1511.325 2422.147 C 1523.081 2419.942,1570.743 2392.752,1597.964 2372.723 C 1607.609 2365.626,1629.077 2346.649,1645.671 2330.551 C 1683.257 2294.090,1693.813 2288.991,1737.417 2286.237 C 1766.117 2284.424,1770.442 2283.375,1780.338 2275.827 C 1794.200 2265.254,1793.969 2256.006,1779.750 2252.342 C 1772.128 2250.377,1770.000 2248.244,1770.000 2242.567 C 1770.000 2232.526,1784.568 2222.338,1812.000 2213.195 C 1845.060 2202.177,1848.816 2201.519,1892.158 2199.161 C 1929.619 2197.123,1933.039 2196.399,1953.870 2186.104 C 1981.458 2172.469,1999.383 2156.812,2019.097 2129.130 C 2027.569 2117.234,2046.101 2096.607,2060.280 2083.294 C 2079.177 2065.551,2085.543 2057.742,2084.124 2054.044 C 2081.280 2046.633,2069.456 2047.888,2056.169 2057.013 C 2049.751 2061.421,2038.994 2068.785,2032.264 2073.379 C 1994.587 2099.097,1963.756 2105.029,1948.266 2089.539 C 1941.117 2082.390,1941.002 2081.698,1945.510 2072.980 C 1950.919 2062.521,1969.624 2047.904,1988.532 2039.359 C 2001.778 2033.373,2042.943 2024.148,2079.886 2018.887 C 2108.130 2014.864,2121.596 2007.240,2150.419 1978.954 C 2179.940 1949.984,2198.536 1922.170,2192.913 1915.396 C 2190.907 1912.978,2188.007 1911.000,2186.469 1911.000 C 2184.932 1911.000,2174.355 1919.021,2162.965 1928.824 C 2115.646 1969.550,2071.162 1956.467,2104.772 1911.709 C 2129.186 1879.199,2150.734 1860.668,2182.227 1845.099 C 2198.877 1836.868,2220.890 1826.904,2231.144 1822.958 C 2241.398 1819.012,2259.369 1809.237,2271.080 1801.235 C 2292.021 1786.926,2302.184 1777.025,2339.049 1735.013 C 2357.468 1714.022,2366.774 1707.858,2395.118 1697.877 C 2412.085 1691.902,2416.591 1686.322,2410.822 1678.433 C 2406.439 1672.439,2397.078 1671.780,2369.348 1675.511 C 2346.929 1678.528,2337.000 1672.958,2337.000 1657.364 C 2337.000 1649.275,2339.771 1643.860,2349.075 1633.766 C 2363.605 1618.003,2368.525 1616.051,2408.922 1610.024 C 2460.641 1602.308,2490.492 1583.406,2523.453 1537.500 C 2537.420 1518.049,2544.054 1504.836,2548.708 1487.205 C 2551.917 1475.047,2551.815 1472.243,2548.026 1468.455 C 2541.155 1461.584,2539.118 1462.742,2525.523 1481.250 C 2502.112 1513.121,2496.330 1518.000,2481.972 1518.000 C 2470.022 1518.000,2468.697 1517.168,2463.061 1506.120 C 2455.009 1490.336,2455.418 1480.353,2464.897 1461.332 C 2476.518 1438.010,2500.260 1414.188,2535.382 1390.607 C 2607.521 1342.174,2648.336 1280.059,2648.800 1218.000 C 2648.880 1207.246,2645.528 1183.699,2641.325 1165.500 C 2620.078 1073.497,2620.304 1061.984,2645.003 978.000 C 2662.031 920.102,2662.205 919.121,2661.875 882.679 C 2661.399 830.154,2647.818 789.000,2630.959 789.000 C 2622.329 789.000,2621.297 793.632,2626.508 808.979 C 2629.141 816.735,2632.804 836.675,2634.647 853.290 C 2637.470 878.737,2637.211 888.142,2633.000 912.943 C 2626.221 952.868,2620.473 965.215,2580.654 1025.366 C 2561.770 1053.892,2542.158 1086.967,2537.071 1098.866 C 2528.371 1119.217,2527.715 1123.437,2526.011 1170.000 C 2524.033 1224.072,2520.307 1237.243,2503.179 1250.716 C 2492.399 1259.196,2486.070 1258.634,2474.112 1248.135 C 2461.862 1237.379,2458.224 1222.740,2455.435 1172.983 C 2453.615 1140.518,2453.969 1137.221,2461.386 1117.515 C 2471.397 1090.916,2481.723 1073.159,2497.392 1055.595 C 2525.384 1024.217,2536.847 989.664,2532.331 950.280 C 2530.119 930.985,2526.354 920.083,2510.058 885.780 C 2490.625 844.875,2484.000 822.013,2484.000 795.855 C 2484.000 781.706,2478.423 776.424,2470.462 783.032 C 2463.192 789.065,2464.750 829.208,2473.824 869.639 C 2482.865 909.924,2482.181 926.838,2470.720 946.396 C 2463.906 958.022,2459.179 961.339,2441.082 967.189 C 2432.557 969.945,2416.565 961.652,2407.508 949.778 C 2402.953 943.805,2395.805 929.824,2391.625 918.709 C 2384.690 900.269,2383.844 892.855,2381.959 834.000 C 2380.001 772.844,2379.495 768.716,2372.215 754.380 C 2363.316 736.854,2339.092 713.142,2331.608 714.630 C 2327.280 715.491,2326.659 718.698,2327.543 735.639 C 2329.610 775.241,2317.377 788.111,2298.311 766.396 C 2282.894 748.837,2284.821 736.789,2308.737 701.208 C 2325.917 675.649,2328.840 669.262,2331.296 651.919 C 2335.251 623.992,2331.312 607.075,2311.492 566.865 C 2294.813 533.029,2294.568 532.153,2295.603 510.000 C 2296.511 490.551,2298.467 483.838,2310.031 460.500 C 2322.272 435.797,2323.504 431.243,2324.514 406.971 C 2325.521 382.773,2325.146 380.532,2320.248 381.475 C 2317.182 382.066,2313.840 386.518,2312.457 391.856 C 2309.496 403.283,2288.612 423.055,2269.015 432.986 C 2252.276 441.468,2226.427 467.522,2217.617 484.791 C 2207.894 503.850,2207.077 519.934,2213.847 559.048 C 2222.864 611.141,2222.099 619.241,2205.949 642.715 C 2192.743 661.909,2168.377 663.932,2155.846 646.875 C 2142.588 628.827,2136.965 603.700,2142.000 585.001 C 2143.807 578.290,2151.183 566.239,2158.583 557.907 C 2174.274 540.239,2176.357 533.953,2176.438 504.000 C 2176.495 483.194,2176.011 481.430,2170.008 480.575 C 2165.523 479.936,2162.882 481.646,2161.468 486.102 C 2159.027 493.793,2138.433 503.841,2124.920 503.934 C 2118.372 503.979,2113.862 501.890,2110.670 497.332 C 2100.780 483.212,2107.651 459.916,2130.072 431.551 C 2149.257 407.280,2155.228 387.884,2155.331 349.500 C 2155.407 320.831,2154.493 314.609,2148.363 302.087 C 2139.969 284.941,2130.359 283.396,2126.058 298.500 C 2124.648 303.450,2118.546 317.367,2112.497 329.426 C 2101.222 351.907,2077.095 377.677,2048.764 397.500 C 2039.175 404.210,2032.606 412.822,2022.951 431.342 C 2010.938 454.384,2010.001 457.861,2010.017 479.342 C 2010.037 506.877,2013.215 519.702,2026.720 546.745 C 2040.709 574.760,2047.075 598.074,2044.733 612.721 C 2041.209 634.759,2021.313 642.454,2001.997 629.250 C 1987.933 619.635,1984.704 609.822,1987.653 585.655 C 1991.726 552.272,1990.435 510.065,1984.888 495.272 C 1971.089 458.468,1935.310 406.841,1911.331 389.132 C 1878.001 364.517,1865.610 352.997,1859.400 340.851 C 1851.467 325.336,1845.082 301.752,1845.036 287.795 C 1844.981 271.394,1853.040 247.948,1861.446 240.051 C 1871.062 231.017,1871.464 221.999,1862.250 222.002 C 1858.294 222.003,1849.668 227.673,1841.412 235.700 M2602.211 435.468 C 2599.509 439.840,2596.087 475.032,2592.485 535.500 C 2590.332 571.647,2588.452 582.196,2578.992 611.195 C 2566.283 650.153,2565.071 669.753,2574.135 689.733 C 2582.717 708.647,2616.935 758.944,2620.500 757.883 C 2622.183 757.382,2623.614 745.248,2623.759 730.245 C 2624.057 699.381,2629.922 678.027,2648.935 638.585 C 2671.285 592.219,2670.703 560.755,2646.667 515.777 C 2632.955 490.119,2627.217 474.779,2619.822 444.000 C 2617.163 432.930,2606.863 427.940,2602.211 435.468 M287.127 844.873 C 283.350 848.650,284.855 865.098,291.011 887.313 C 294.317 899.243,298.371 918.515,300.020 930.138 C 303.512 954.764,310.089 968.854,329.899 994.155 C 337.800 1004.245,347.467 1019.182,351.382 1027.349 C 355.297 1035.516,359.911 1042.624,361.636 1043.144 C 363.360 1043.665,367.855 1041.218,371.623 1037.707 C 378.152 1031.625,378.428 1029.608,377.487 994.912 C 376.290 950.747,371.464 938.838,339.003 899.942 C 327.325 885.949,314.109 867.750,309.635 859.500 C 301.981 845.387,292.666 839.334,287.127 844.873 " stroke="none" fill="red" fill-rule="evenodd"/></svg>